<?xml version="1.0" standalone="no"?>
<!DOCTYPE svg PUBLIC "-//W3C//DTD SVG 20010904//EN"
 "http://www.w3.org/TR/2001/REC-SVG-20010904/DTD/svg10.dtd">
<svg version="1.0" xmlns="http://www.w3.org/2000/svg"
 width="466.000000pt" height="429.000000pt" viewBox="0 0 466.000000 429.000000"
 preserveAspectRatio="xMidYMid meet">

<g transform="translate(0.000000,429.000000) scale(0.100000,-0.100000)"
fill="#000000" stroke="none">
<path d="M2236 3963 c-18 -9 -49 -15 -80 -13 -109 4 -156 1 -237 -15 -93 -18
-147 -39 -156 -60 -2 -8 -26 -25 -51 -38 -292 -147 -292 -146 -292 -271 0 -83
30 -193 56 -203 7 -3 41 -52 75 -109 l62 -105 -7 -62 c-3 -35 -17 -83 -31
-110 -31 -61 -32 -88 -1 -115 22 -19 24 -24 14 -56 -10 -32 -8 -42 11 -76 22
-39 22 -43 10 -158 -11 -102 -10 -132 4 -224 10 -59 17 -134 17 -168 0 -33 7
-77 16 -98 29 -68 94 -262 94 -282 0 -28 -24 -41 -240 -120 -400 -148 -420
-157 -571 -271 -91 -69 -133 -129 -195 -276 -25 -59 -49 -112 -54 -118 -24
-29 -56 -145 -106 -380 -30 -143 -64 -300 -75 -350 -12 -50 -29 -134 -38 -187
l-18 -98 2009 0 c1909 0 2009 1 2004 18 -2 9 -10 69 -16 132 -6 63 -25 214
-41 335 -29 204 -36 234 -96 415 -36 107 -92 250 -124 317 -50 102 -69 130
-120 177 -33 31 -84 72 -114 90 -66 43 -301 153 -460 216 -231 92 -280 113
-297 128 -18 15 -52 110 -62 173 -13 77 -57 108 -203 145 -52 13 -99 26 -104
29 -12 8 -12 0 5 -89 18 -89 26 -106 83 -170 34 -38 43 -56 43 -85 0 -55 -21
-154 -36 -171 -20 -23 -64 -127 -57 -134 11 -10 -31 -47 -82 -73 -47 -24 -100
-65 -185 -143 -35 -33 -87 -60 -114 -60 -7 0 -16 9 -19 21 -3 12 -10 18 -16
15 -5 -3 -27 10 -48 31 -31 30 -35 37 -20 41 22 5 22 14 -3 32 -57 41 0 96
148 139 68 21 72 23 68 48 -3 15 1 32 10 41 16 15 11 64 -7 70 -5 2 -5 11 1
22 5 10 7 25 5 33 -3 7 1 20 9 27 9 7 13 16 10 22 -3 5 0 15 6 23 6 8 9 19 5
25 -4 6 1 18 11 26 12 10 15 17 8 20 -8 3 -9 16 -4 39 5 22 4 35 -2 35 -13 0
-2 64 17 103 8 15 11 35 8 43 -3 7 -1 14 5 14 5 0 17 33 27 73 27 117 34 134
58 142 21 7 21 8 -5 12 -15 2 -34 14 -43 25 -11 17 -15 18 -20 7 -29 -79 -35
-92 -32 -66 3 15 1 118 -4 229 -7 201 -3 248 25 248 7 0 16 10 19 22 4 12 9
19 13 16 3 -4 20 1 37 11 18 10 56 24 85 31 49 13 54 12 81 -7 l28 -21 11 66
c20 118 44 445 37 512 -14 140 6 114 -274 359 -105 92 -237 166 -336 187 -78
17 -104 17 -139 -3z m244 -85 c0 -19 -2 -20 -10 -8 -13 19 -13 30 0 30 6 0 10
-10 10 -22z m57 -64 c-3 -3 -12 -4 -19 -1 -8 3 -5 6 6 6 11 1 17 -2 13 -5z
m-322 -74 c3 -5 1 -10 -4 -10 -6 0 -11 5 -11 10 0 6 2 10 4 10 3 0 8 -4 11
-10z m250 -20 c3 -5 -1 -10 -10 -10 -9 0 -13 5 -10 10 3 6 8 10 10 10 2 0 7
-4 10 -10z m-130 -80 c3 -5 2 -10 -4 -10 -5 0 -13 5 -16 10 -3 6 -2 10 4 10 5
0 13 -4 16 -10z m69 -26 c9 -24 8 -26 -14 -14 -11 6 -18 15 -15 21 9 14 22 11
29 -7z m-360 -299 c-17 -13 -17 -14 -2 -15 9 0 20 5 23 10 7 12 45 14 45 2 0
-8 7 -9 75 -14 34 -3 40 -6 38 -25 -2 -19 3 -22 47 -25 34 -2 51 1 55 10 3 8
0 10 -7 6 -7 -4 -8 -3 -4 4 14 24 32 11 54 -40 36 -82 37 -99 6 -132 -23 -24
-25 -30 -12 -37 31 -17 128 -100 128 -109 0 -5 8 -17 19 -27 10 -10 29 -47 41
-83 12 -36 27 -70 32 -77 5 -6 8 -17 7 -25 -4 -27 14 -78 27 -78 8 0 14 -7 14
-16 0 -8 -4 -12 -10 -9 -5 3 -10 -3 -10 -14 0 -11 5 -23 10 -26 13 -8 13 -26
-1 -22 -6 1 -12 -17 -14 -43 -4 -60 -15 -110 -25 -110 -4 0 -7 -8 -6 -17 0
-10 -5 -17 -11 -16 -7 2 -19 -10 -27 -26 -9 -16 -22 -31 -31 -34 -9 -4 -15
-19 -15 -42 0 -30 -3 -35 -23 -35 -13 0 -28 5 -35 12 -9 9 -17 7 -34 -12 -13
-14 -23 -19 -26 -12 -6 19 -46 14 -62 -8 -8 -11 -25 -20 -37 -20 -15 0 -23 -6
-23 -17 0 -13 -3 -14 -12 -5 -19 19 -30 14 -18 -9 17 -30 5 -51 -23 -44 -16 4
-30 1 -41 -10 -9 -10 -18 -16 -20 -14 -2 2 -8 37 -14 77 -6 41 -18 82 -26 91
-9 10 -16 27 -16 38 0 11 -16 38 -35 59 -19 21 -37 46 -41 56 -3 10 -14 18
-24 18 -11 0 -24 9 -30 20 -17 32 -28 23 -23 -19 8 -60 -2 -87 -38 -100 -25
-8 -38 -8 -63 4 -37 18 -120 30 -112 16 9 -14 -17 -20 -29 -7 -24 25 -47 89
-40 115 3 14 10 49 14 77 12 67 35 112 82 152 22 19 39 40 39 48 0 11 9 14 33
11 17 -2 31 -8 30 -13 -1 -5 -4 -21 -8 -36 -5 -21 -3 -26 12 -25 11 1 18 -5
18 -15 0 -21 17 -39 39 -42 9 -1 28 -11 43 -23 16 -11 32 -20 37 -21 5 0 12
-5 16 -11 4 -8 19 -7 51 2 24 8 50 12 57 9 7 -2 12 5 12 17 0 11 11 32 26 46
15 15 22 30 17 38 -18 29 -11 37 35 38 64 1 96 12 100 32 5 25 -33 72 -73 91
-35 17 -46 40 -22 49 15 7 -31 46 -55 47 -9 0 -20 5 -24 11 -5 8 -43 10 -125
7 -125 -5 -132 -4 -163 42 -23 34 -21 66 5 73 12 3 18 10 14 16 -3 6 1 14 9
17 9 3 16 12 16 20 0 8 7 14 16 14 8 0 12 5 9 10 -4 6 5 10 20 10 20 0 26 4
21 15 -8 23 4 45 25 45 16 0 17 4 9 26 -11 29 -6 44 16 44 8 0 14 4 14 9 0 5
8 12 18 14 32 9 36 7 16 -8z m-74 -71 c0 -2 -7 -4 -15 -4 -8 0 -15 4 -15 10 0
5 7 7 15 4 8 -4 15 -8 15 -10z m14 -948 c9 -27 15 -50 13 -52 -4 -5 -118 14
-125 20 -2 3 -2 16 2 30 5 19 15 26 47 31 32 6 39 10 34 23 -4 11 -3 13 3 7 6
-5 17 -32 26 -59z m83 -148 c-3 -8 -6 -5 -6 6 -1 11 2 17 5 13 3 -3 4 -12 1
-19z m-107 -87 c0 -14 -18 -23 -31 -15 -8 4 -7 9 2 15 18 11 29 11 29 0z m53
-98 c-7 -2 -21 -2 -30 0 -10 3 -4 5 12 5 17 0 24 -2 18 -5z m47 -27 c0 -8 -11
-16 -25 -18 -14 -3 -25 -1 -25 3 0 5 7 9 15 9 8 0 14 3 14 8 -3 16 2 23 11 17
6 -3 10 -12 10 -19z m1061 -28 c-9 -20 -10 -18 -10 17 0 31 2 36 9 23 6 -10 7
-25 1 -40z m-1124 36 c-3 -3 -12 -4 -19 -1 -8 3 -5 6 6 6 11 1 17 -2 13 -5z
m1160 -190 c15 -41 23 -197 11 -209 -4 -4 -20 2 -37 14 -29 21 -30 23 -26 94
7 146 25 180 52 101z m161 -49 c32 -9 27 -30 -9 -33 -20 -2 -28 1 -24 8 4 6
-1 18 -11 26 -18 14 -18 15 1 10 11 -2 30 -7 43 -11z m-40 -64 c3 -16 -1 -22
-10 -19 -7 3 -15 15 -16 27 -3 16 1 22 10 19 7 -3 15 -15 16 -27z m82 -75 c0
-8 -10 -22 -22 -31 -21 -14 -23 -14 -26 0 -4 19 15 45 34 45 8 0 14 -6 14 -14z
m150 -40 c0 -27 -29 -44 -42 -24 -5 8 0 19 13 31 27 22 29 22 29 -7z m500
-146 c16 -30 12 -45 -20 -63 -19 -12 -30 -14 -30 -6 0 6 -7 9 -15 5 -9 -3 -15
0 -15 9 0 8 -7 15 -16 15 -9 0 -13 5 -10 13 3 6 9 19 12 28 9 25 81 24 94 -1z
m-1767 -29 c4 -17 2 -18 -24 -9 -16 5 -29 12 -29 15 0 3 7 3 15 -1 8 -3 15 -1
15 4 0 18 18 10 23 -9z m72 -31 c8 -13 -15 -13 -35 0 -12 8 -11 10 7 10 12 0
25 -4 28 -10z m1785 -142 c0 -30 -17 -29 -30 1 -7 17 -9 39 -4 53 7 23 7 23
20 -7 7 -16 13 -38 14 -47z m-30 -78 c-9 -16 -15 -19 -23 -11 -8 8 -6 15 9 25
24 18 29 14 14 -14z m-1785 -58 c-8 -8 -25 17 -25 38 0 9 6 6 16 -8 9 -13 13
-26 9 -30z m1164 -69 c-15 -17 -32 -2 -23 21 5 13 9 14 20 5 11 -9 12 -15 3
-26z m-1114 -83 c3 -5 2 -10 -4 -10 -5 0 -13 5 -16 10 -3 6 -2 10 4 10 5 0 13
-4 16 -10z m1268 -319 c-9 -36 -27 -48 -50 -33 -18 11 -5 80 16 85 23 5 42
-22 34 -52z m-1123 -1 c0 -5 -4 -10 -9 -10 -6 0 -13 5 -16 10 -3 6 1 10 9 10
9 0 16 -4 16 -10z m-25 -40 c3 -5 1 -10 -4 -10 -6 0 -11 5 -11 10 0 6 2 10 4
10 3 0 8 -4 11 -10z m155 -235 c11 -13 10 -14 -4 -9 -9 3 -16 10 -16 15 0 13
6 11 20 -6z"/>
<path d="M2076 3252 c-3 -5 -19 -8 -36 -7 -23 1 -30 -2 -30 -17 0 -11 -5 -29
-11 -40 -10 -18 -9 -20 7 -14 24 10 44 14 67 15 10 1 15 6 12 11 -3 6 2 10 12
10 15 0 16 2 3 11 -11 8 -12 12 -2 16 6 2 10 9 6 14 -7 11 -21 12 -28 1z"/>
<path d="M1970 3210 c-12 -8 -11 -10 8 -10 12 0 22 5 22 10 0 13 -11 13 -30 0z"/>
<path d="M2819 2818 c-34 -38 -37 -58 -9 -58 17 0 19 5 14 25 -5 18 -1 27 12
32 10 4 19 2 22 -5 2 -7 10 -12 17 -12 15 0 26 -25 19 -43 -2 -7 2 -26 10 -41
9 -18 13 -45 10 -75 -6 -62 13 -43 30 30 16 70 4 121 -36 154 -39 33 -53 32
-89 -7z"/>
<path d="M2767 2713 c-4 -3 -7 -20 -7 -37 0 -28 -1 -29 -15 -10 -18 23 -19 11
-3 -54 9 -39 15 -49 27 -44 23 8 31 24 20 39 -6 7 -8 17 -4 23 11 18 34 11 40
-12 8 -35 2 -69 -11 -64 -6 2 -17 0 -25 -5 -10 -6 -5 -9 17 -9 22 0 39 9 57
30 26 29 27 32 13 64 -9 21 -31 45 -55 60 -45 29 -45 29 -54 19z"/>
<path d="M2693 2535 c0 -22 2 -30 4 -17 2 12 2 30 0 40 -3 9 -5 -1 -4 -23z"/>
</g>
</svg>
